<?xml version="1.0" encoding="UTF-8"?> <svg xmlns="http://www.w3.org/2000/svg" width="262" height="116" viewBox="0 0 262 116" fill="none"> <g clip-path="url(#clip0)"> <path d="M96.0567 76.2313C96.0567 76.927 95.8511 77.6071 95.4659 78.1856C95.0807 78.7642 94.5332 79.215 93.8926 79.4813C93.252 79.7476 92.5471 79.8172 91.8671 79.6815C91.187 79.5457 90.5624 79.2107 90.0721 78.7187C89.5818 78.2268 89.2479 77.5999 89.1126 76.9175C88.9774 76.2352 89.0468 75.5278 89.3121 74.885C89.5775 74.2423 90.0268 73.6928 90.6033 73.3063C91.1798 72.9198 91.8576 72.7134 92.551 72.7134C93.4808 72.7134 94.3725 73.0841 95.0299 73.7438C95.6874 74.4035 96.0567 75.2983 96.0567 76.2313ZM137.67 34.0175C140.825 35.7764 129.344 53.5941 111.236 63.0394C109.922 68.6679 111.359 72.432 112.604 72.2561C116.39 71.1128 114.812 61.7027 114.812 61.7027L122.157 58.1849C124.874 66.7156 120.404 79.2918 111.903 79.6259C101.035 79.3093 101.666 66.8387 101.666 66.8387L95.2153 68.8263L96.9682 63.9013L102.016 62.5821C109.378 37.6408 132.358 31.1153 137.529 33.9999L137.67 34.0175ZM112.989 58.1321C117.249 57.2702 133.918 39.4525 130.518 39.7691C123.612 41.528 111.675 57.3582 112.989 58.1321ZM126.469 56.8481V60.3659C126.469 60.3659 131.131 57.323 131.482 57.8858C131.605 59.4864 125.715 72.9949 125.592 75.0352C125.487 76.0202 126.013 79.6435 129.098 79.6435C130.322 79.6216 131.524 79.3081 132.604 78.7289C135.995 76.6872 139.142 74.2617 141.982 71.4998C141.334 73.2209 141.112 75.0735 141.333 76.8996C141.824 79.2918 144.348 80.2767 147.047 79.2918C149.86 78.1725 152.409 76.4772 154.532 74.314C154.339 73.804 153.586 71.3943 153.586 71.3943C153.586 71.3943 151.184 73.6632 150.588 73.3818C149.992 73.1004 157.6 50.516 157.6 50.516H149.116C147.854 56.2325 140.614 71.148 135.706 71.7988C133.954 71.6757 141.631 54.6494 141.912 52.7322C142.472 50.217 140.614 49.0561 138.406 49.5662C136.057 50.3753 126.504 56.7777 126.504 56.7777L126.469 56.8481ZM177.705 50.516H185.68L172.727 91.3051H164.664C164.664 91.3051 169.204 75.6508 170.15 74.4196C163.735 82.5633 158.02 79.3269 157.021 72.6607C156.421 68.7788 156.944 64.8056 158.529 61.2135C160.114 57.6215 162.693 54.5617 165.961 52.398C172.569 48.2646 175.777 51.3955 176.706 52.9961C176.881 52.6091 177.687 50.6567 177.687 50.6567L177.705 50.516ZM174.357 58.3959C174.357 54.9836 172.043 55.0188 170.15 57.1823C169.431 58.009 165.54 63.9365 165.663 68.6679C165.926 72.6783 167.696 71.6229 168.835 70.9897C171.5 69.2308 174.094 62.3183 174.357 58.3959ZM53.8128 79.6611C60.982 79.6611 69.6937 58.8708 73.4974 51.0261C74.2336 49.4958 74.6543 48.3701 75.0574 48.335C76.4071 49.7773 63.8742 72.1154 70.833 78.2364C71.514 78.9022 72.3621 79.3702 73.2871 79.5908C79.983 80.9451 84.6982 72.432 88.7122 67.9292L86.6964 65.9065C85.3467 67.4719 83.7867 71.3063 82.6649 69.2836C80.4387 65.7658 94.0059 27.9492 94.0059 27.9492H81.245C79.9129 30.2006 65.6796 62.5469 62.9802 63.0043C62.542 63.2153 62.3141 62.7756 62.3141 62.3183C63.8742 50.1994 67.0819 39.6284 70.8856 27.9492H58.1248C50.7453 48.5988 50.6752 48.8626 43.9617 62.547C40.6137 68.8438 35.6707 72.8717 39.2465 63.0043H27.625C25.3814 69.0549 24.4348 79.0631 31.6391 79.7315H32.0598C40.0178 79.7315 48.6594 59.3809 49.5884 58.5015C48.9223 65.5371 45.7496 73.7864 49.8163 78.0253C50.8782 79.1196 52.3261 79.7513 53.8478 79.7843L53.8128 79.6611ZM193.498 72.4848C196.355 76.6534 204.471 68.8263 204.471 68.8263L206.347 71.7284C206.347 71.7284 199.984 79.9601 192.587 79.8018C191.302 79.8262 190.026 79.5824 188.84 79.0858C187.654 78.5892 186.584 77.8508 185.698 76.9172C184.979 77.4097 182.315 79.0103 182.315 79.0103L180.913 75.1935C180.913 75.1935 182.928 74.103 183.875 73.5225C181.701 54.3328 200.825 47.3324 207.802 51.2548C212.534 54.1218 208.853 64.3938 193.498 72.4848ZM192.99 68.967C201.246 62.3886 204.769 56.2149 203.034 55.0012C201.298 53.7876 197.775 56.7601 195.532 60.7353C193.288 64.7104 192.657 68.3865 192.99 68.9494V68.967ZM210.063 74.8769C210.65 76.2758 211.621 77.4791 212.862 78.3475C214.102 79.216 215.563 79.7141 217.074 79.7843C219.572 79.6745 221.994 78.8906 224.086 77.5153C234.463 71.834 237.022 57.622 236.829 54.9485C236.829 49.2144 232.78 50.0235 232.114 50.2346C226.557 52.099 221.702 59.0291 221.702 59.0291L224.103 61.4388C224.103 61.4388 226.382 57.0767 228.59 57.0767C230.799 57.0767 227.293 65.5899 226.732 66.8387C223.84 73.2235 218.599 75.9674 217.179 70.3565C215.426 61.0871 227.995 51.0085 227.995 51.0085H219.441C219.441 51.0085 205.085 62.2303 210.115 74.789" fill="#727272"></path> </g> <defs> <clipPath id="clip0"> <rect width="262" height="116" fill="white"></rect> </clipPath> </defs> </svg> 